<svg width="86" height="43" viewBox="0 0 86 43" fill="none" xmlns="http://www.w3.org/2000/svg">
<path d="M84.4896 21.6744C84.4896 21.6744 72.8263 26.3354 54.6308 25.5561C38.826 24.8793 25.3556 21.9094 14.3433 21.4147C14.3433 21.4147 10.2971 21.4176 9.48039 21.7977C8.32018 22.3378 7.74124 22.7439 9.57903 24.2675C14.8766 28.6594 19.8018 34.5461 25.2616 38.4602C26.2424 39.1634 28.5358 41.7764 26.0997 40.6322C21.9552 37.5864 21.3533 37.6048 16.5823 33.7345C10.1155 29.2373 6.45313 25.8691 3.29099 23.2059C1.51747 21.7122 3.1261 19.1604 3.1261 19.1604L24.4668 1.68462" stroke="#131313" stroke-width="3" stroke-linecap="round"/>
</svg>
