<svg width="186" height="85" viewBox="0 0 186 85" fill="none" xmlns="http://www.w3.org/2000/svg">
<path d="M183.371 76.9247C185.004 66.5291 185.225 49.0742 172.985 33.0109C153.105 6.92241 119.988 30.7371 120.011 39.5764C120.035 48.4157 130.111 47.9663 134.92 43.629C141.254 37.9168 140.465 29.0423 138.772 24.7611C137.079 20.48 121.626 -4.16546 98.2716 3.54154C65.1347 14.4766 70.2689 38.4321 33.8508 62.3731C29.783 65.4727 11.9116 72.6083 8.71997 76.5876C7.51561 78.0891 9.16517 77.077 11.1286 77.1314C11.1286 77.1314 29.2668 72.6094 31.4325 72.2677C37.0533 71.3809 25.9427 75.069 24.5081 75.6394C19.1589 77.7662 13.4107 79.5518 8.27098 81.8215C3.37103 83.9854 0.600593 84.3921 2.20101 80.5361C2.20101 80.5361 6.57406 72.3974 7.29606 71.2657C10.696 65.9362 12.4676 60.4708 15.4733 55.251" stroke="#131313" stroke-width="3" stroke-linecap="round"/>
</svg>
