<svg width="30" height="31" viewBox="0 0 30 31" fill="none" xmlns="http://www.w3.org/2000/svg">
<circle cx="15" cy="15.5" r="15" fill="#DBFF3F"/>
<path d="M22.7016 9.72488C22.8779 9.88168 22.9846 10.102 22.9985 10.3375C23.0123 10.573 22.9321 10.8043 22.7755 10.9807L13.2826 21.6609C13.1991 21.7548 13.0967 21.83 12.982 21.8815C12.8673 21.933 12.743 21.9597 12.6173 21.9597C12.4916 21.9597 12.3674 21.933 12.2527 21.8815C12.138 21.83 12.0356 21.7548 11.9521 21.6609L7.20561 16.3208C7.05797 16.1432 6.98515 15.9152 7.00252 15.6849C7.0199 15.4546 7.12611 15.24 7.29872 15.0866C7.47133 14.9332 7.69683 14.8529 7.92757 14.8626C8.15831 14.8723 8.37623 14.9714 8.53529 15.1388L12.6169 19.7304L21.4458 9.79786C21.6028 9.62178 21.8232 9.51518 22.0586 9.5015C22.2941 9.48782 22.5254 9.56816 22.7016 9.72488Z" fill="black"/>
</svg>
