<svg width="711" height="157" viewBox="0 0 711 157" fill="none" xmlns="http://www.w3.org/2000/svg">
<path d="M525.888 13.7835C482.433 5.42205 431.66 1 386.112 1C334.75 1 283.812 8.98969 232.751 8.98969C219.759 8.98969 207.123 13.2378 195.076 16.0916C171.629 21.6461 148.033 28.5327 126.728 36.8648C112.09 42.5898 98.7177 48.5942 86.6722 56.3952C76.9103 62.7173 62.6049 69.1462 56.9804 77.3459C45.5375 94.028 50.6457 105.995 73.2269 117.294C109.206 135.299 153.371 138.207 197.036 142.329C236.743 146.077 279.355 144.814 319.445 144.814C359.175 144.814 396.365 144.053 435.132 139.666C452.245 137.729 469.349 137.167 486.672 136.736C508.413 136.196 529.54 132.306 551.098 130.788C583.218 128.526 615.4 123.79 645.496 116.762C663.593 112.536 688.197 99.9708 699.838 90.4845C712.214 80.3987 712.271 65.5027 705.44 54.0871C697.574 40.9422 667.335 30.6364 646.896 27.8099C623.118 24.5215 603.579 15.5266 578.829 13.7835C510.154 8.94688 441.717 0.138717 372.106 4.55097C337.645 6.73528 302.178 10.0261 267.625 10.5876C239.649 11.0423 212.01 15.3814 184.291 15.3814C160.413 15.3814 132.981 19.0069 109.922 22.6609C87.7671 26.1716 57.7312 34.4627 39.8935 43.2566C11.5696 57.2201 -2.27893 80.808 1.65823 103.268C3.45113 113.496 22.69 122.918 35.8319 127.237C64.6974 136.724 96.1435 141.501 127.569 146.412C176.356 154.037 226.553 156 276.728 156C315.197 156 353.666 156 392.134 156C418.821 156 442.426 150.2 469.025 149.608C496.55 148.996 521.789 140.99 548.017 137.18C568.133 134.258 583.768 129.521 601.378 123.242C624.466 115.01 648.542 101.737 656.98 85.6907" stroke="#DBFF3F" stroke-width="2" stroke-linecap="round"/>
</svg>
