<svg width="1416" height="185" viewBox="0 0 1416 185" fill="none" xmlns="http://www.w3.org/2000/svg">
<path d="M206.03 46.4829H154.576V181.327H117.375V46.4829H65.9214V12.1678H206.03V46.4829Z" fill="white"/>
<path d="M346.969 181.327H310.251V109.072C310.251 91.6725 302.038 82.7312 288.027 82.7312C274.016 82.7312 265.078 91.6725 265.078 109.072V181.327H228.36V4.91816H265.078V70.1652C273.533 59.2907 284.403 49.3828 303.004 49.3828C330.784 49.3828 346.969 67.7486 346.969 97.4722V181.327Z" fill="white"/>
<path d="M574.053 181.327H537.335V109.072C537.335 91.6725 529.605 82.7312 515.835 82.7312C502.066 82.7312 493.611 91.6725 493.611 109.072V181.327H456.893V109.072C456.893 91.6725 449.163 82.7312 435.394 82.7312C421.624 82.7312 413.169 91.6725 413.169 109.072V181.327H376.451V51.7993H413.169V70.1652C421.624 59.2907 432.736 49.3828 451.337 49.3828C468.247 49.3828 481.05 56.8741 487.814 69.9235C499.167 56.6324 512.695 49.3828 530.329 49.3828C557.626 49.3828 574.053 65.8153 574.053 96.9889V181.327Z" fill="white"/>
<path d="M676.041 37.3C670.727 35.3668 665.654 34.1585 659.373 34.1585C650.918 34.1585 646.087 38.5083 646.087 48.1745V53.2493H675.799V83.2145H646.57V181.327H609.852V83.2145H594.633V53.0076H609.852V44.7913C609.852 16.276 624.104 3.22656 649.952 3.22656C661.547 3.22656 669.277 4.67651 676.041 6.85139V37.3Z" fill="white"/>
<path d="M824.863 116.805C824.863 154.02 794.909 184.227 754.567 184.227C714.467 184.227 684.754 154.503 684.754 117.288V116.805C684.754 79.5897 714.709 49.3828 755.05 49.3828C795.15 49.3828 824.863 79.1064 824.863 116.321V116.805ZM788.628 117.288V116.805C788.628 97.7139 774.859 81.0396 754.567 81.0396C733.551 81.0396 720.989 97.2306 720.989 116.321V116.805C720.989 135.895 734.759 152.57 755.05 152.57C776.067 152.57 788.628 136.379 788.628 117.288Z" fill="white"/>
<path d="M927.061 87.806H925.128C900.73 87.806 885.753 102.547 885.753 133.479V181.327H849.035V51.7993H885.753V77.8981C893.241 60.0156 905.32 48.4162 927.061 49.3828V87.806Z" fill="white"/>
<path d="M1145.19 181.327H1108.47V109.072C1108.47 91.6725 1100.74 82.7312 1086.97 82.7312C1073.2 82.7312 1064.75 91.6725 1064.75 109.072V181.327H1028.03V109.072C1028.03 91.6725 1020.3 82.7312 1006.53 82.7312C992.759 82.7312 984.304 91.6725 984.304 109.072V181.327H947.586V51.7993H984.304V70.1652C992.759 59.2907 1003.87 49.3828 1022.47 49.3828C1039.38 49.3828 1052.18 56.8741 1058.95 69.9235C1070.3 56.6324 1083.83 49.3828 1101.46 49.3828C1128.76 49.3828 1145.19 65.8153 1145.19 96.9889V181.327Z" fill="white"/>
<path d="M1269.64 141.937C1269.64 170.694 1248.14 183.743 1220.12 183.743C1202 183.743 1181.71 177.702 1164.56 164.169L1180.26 140.004C1194.27 150.153 1209.01 155.47 1221.09 155.47C1231.72 155.47 1236.55 151.603 1236.55 145.803V145.32C1236.55 137.345 1223.99 134.687 1209.73 130.337C1191.62 125.021 1171.08 116.563 1171.08 91.4308V90.9475C1171.08 64.6071 1192.34 49.8661 1218.43 49.8661C1234.86 49.8661 1252.73 55.4242 1266.74 64.8487L1252.73 90.2226C1239.93 82.7312 1227.13 78.1398 1217.7 78.1398C1208.77 78.1398 1204.18 82.0063 1204.18 87.081V87.5643C1204.18 94.814 1216.5 98.1972 1230.51 103.03C1248.63 109.072 1269.64 117.771 1269.64 141.454V141.937Z" fill="white"/>
<path d="M1355.27 36.3334C1355.27 53.4929 1341.36 67.4034 1324.21 67.4034C1307.05 67.4034 1293.15 53.4929 1293.15 36.3334C1293.15 19.1739 1307.05 5.26338 1324.21 5.26338C1341.36 5.26338 1355.27 19.1739 1355.27 36.3334Z" fill="white"/>
</svg>
