<svg width="437" height="88" viewBox="0 0 437 88" fill="none" xmlns="http://www.w3.org/2000/svg">
<path d="M322.559 8.92783C296.021 4.39647 265.012 2 237.195 2C205.828 2 174.719 6.3299 143.535 6.3299C135.6 6.3299 127.883 8.63209 120.526 10.1787C106.206 13.1888 91.7957 16.9209 78.7847 21.4364C69.8448 24.539 61.6781 27.793 54.3217 32.0206C48.3599 35.4468 39.6233 38.9308 36.1883 43.3746C29.1999 52.4152 32.3196 58.9003 46.1103 65.0241C68.0835 74.7812 95.0557 76.3571 121.723 78.5911C145.973 80.6225 171.997 79.9381 196.481 79.9381C220.744 79.9381 243.457 79.5257 267.133 77.1478C277.584 76.098 288.03 75.7935 298.609 75.5601C311.887 75.2673 324.789 73.1596 337.955 72.3368C357.572 71.1108 377.226 68.5441 395.606 64.7354C406.658 62.4451 421.685 55.6358 428.794 50.4948C436.352 45.029 436.387 36.9563 432.215 30.7698C427.411 23.6461 408.944 18.061 396.461 16.5292C381.94 14.7471 370.007 9.87248 354.891 8.92783C312.95 6.3067 271.154 1.53324 228.642 3.9244C207.596 5.10815 185.935 6.89154 164.833 7.19588C147.747 7.44228 130.868 9.79381 113.94 9.79381C99.3569 9.79381 82.6032 11.7586 68.5205 13.7388C54.9903 15.6414 36.6469 20.1346 25.753 24.9003C8.45505 32.4677 -0.00250841 45.2508 2.40199 57.4227C3.49695 62.9655 15.2465 68.0716 23.2725 70.4124C40.9013 75.5537 60.106 78.1424 79.2979 80.8041C109.093 84.9364 139.749 86 170.393 86C193.886 86 217.38 86 240.873 86C257.171 86 271.587 82.8567 287.832 82.5361C304.642 82.2043 320.056 77.8653 336.074 75.8007C348.359 74.2172 357.907 71.6502 368.663 68.2474C382.763 63.7863 397.466 56.5932 402.62 47.8969" stroke="#DBFF3F" stroke-width="3" stroke-linecap="round"/>
</svg>
