<svg width="180" height="24" viewBox="0 0 180 24" fill="none" xmlns="http://www.w3.org/2000/svg">
<path d="M26.1903 5.90682H19.6496V23.0417H14.9206V5.90682H8.37988V1.54634H26.1903V5.90682Z" fill="black"/>
<path d="M44.1063 23.0417H39.4387V13.8601C39.4387 11.6491 38.3947 10.513 36.6136 10.513C34.8326 10.513 33.6964 11.6491 33.6964 13.8601V23.0417H29.0288V0.62511H33.6964V8.91617C34.7712 7.53432 36.153 6.27531 38.5175 6.27531C42.0489 6.27531 44.1063 8.60909 44.1063 12.3861V23.0417Z" fill="black"/>
<path d="M72.9729 23.0417H68.3053V13.8601C68.3053 11.6491 67.3227 10.513 65.5723 10.513C63.822 10.513 62.7472 11.6491 62.7472 13.8601V23.0417H58.0797V13.8601C58.0797 11.6491 57.097 10.513 55.3467 10.513C53.5964 10.513 52.5216 11.6491 52.5216 13.8601V23.0417H47.854V6.58239H52.5216V8.91617C53.5964 7.53432 55.0089 6.27531 57.3734 6.27531C59.5229 6.27531 61.1504 7.22725 62.0102 8.88546C63.4535 7.19654 65.1731 6.27531 67.4148 6.27531C70.8847 6.27531 72.9729 8.36343 72.9729 12.3247V23.0417Z" fill="black"/>
<path d="M85.9375 4.73993C85.2619 4.49427 84.617 4.34073 83.8186 4.34073C82.7439 4.34073 82.1297 4.89347 82.1297 6.12177V6.76663H85.9068V10.5744H82.1911V23.0417H77.5236V10.5744H75.589V6.73592H77.5236V5.69187C77.5236 2.06837 79.3353 0.410156 82.621 0.410156C84.095 0.410156 85.0777 0.594403 85.9375 0.87077V4.73993Z" fill="black"/>
<path d="M104.856 14.8427C104.856 19.5717 101.048 23.4102 95.9196 23.4102C90.8221 23.4102 87.0451 19.6331 87.0451 14.9041V14.8427C87.0451 10.1138 90.8528 6.27531 95.981 6.27531C101.078 6.27531 104.856 10.0523 104.856 14.7813V14.8427ZM100.249 14.9041V14.8427C100.249 12.4168 98.499 10.298 95.9196 10.298C93.248 10.298 91.6512 12.3554 91.6512 14.7813V14.8427C91.6512 17.2686 93.4016 19.3875 95.981 19.3875C98.6526 19.3875 100.249 17.33 100.249 14.9041Z" fill="black"/>
<path d="M117.847 11.1578H117.601C114.5 11.1578 112.596 13.031 112.596 16.9616V23.0417H107.928V6.58239H112.596V9.89881C113.548 7.62644 115.083 6.15248 117.847 6.27531V11.1578Z" fill="black"/>
<path d="M145.575 23.0417H140.907V13.8601C140.907 11.6491 139.925 10.513 138.174 10.513C136.424 10.513 135.349 11.6491 135.349 13.8601V23.0417H130.682V13.8601C130.682 11.6491 129.699 10.513 127.949 10.513C126.198 10.513 125.123 11.6491 125.123 13.8601V23.0417H120.456V6.58239H125.123V8.91617C126.198 7.53432 127.611 6.27531 129.975 6.27531C132.125 6.27531 133.752 7.22725 134.612 8.88546C136.055 7.19654 137.775 6.27531 140.017 6.27531C143.487 6.27531 145.575 8.36343 145.575 12.3247V23.0417Z" fill="black"/>
<path d="M161.395 18.0363C161.395 21.6905 158.662 23.3487 155.1 23.3487C152.797 23.3487 150.218 22.5811 148.037 20.8614L150.033 17.7907C151.814 19.0804 153.688 19.756 155.223 19.756C156.574 19.756 157.188 19.2646 157.188 18.5276V18.4662C157.188 17.4529 155.591 17.1151 153.78 16.5624C151.477 15.8868 148.866 14.812 148.866 11.6184V11.557C148.866 8.20989 151.569 6.33673 154.885 6.33673C156.973 6.33673 159.246 7.043 161.027 8.2406L159.246 11.4649C157.618 10.513 155.991 9.92952 154.793 9.92952C153.657 9.92952 153.073 10.4208 153.073 11.0657V11.1271C153.073 12.0483 154.639 12.4782 156.421 13.0924C158.724 13.8601 161.395 14.9656 161.395 17.9749V18.0363Z" fill="black"/>
<path d="M172.28 4.6171C172.28 6.79759 170.512 8.56522 168.331 8.56522C166.151 8.56522 164.383 6.79759 164.383 4.6171C164.383 2.43661 166.151 0.668979 168.331 0.668979C170.512 0.668979 172.28 2.43661 172.28 4.6171Z" fill="black"/>
</svg>
