<svg width="306" height="95" viewBox="0 0 306 95" fill="none" xmlns="http://www.w3.org/2000/svg">
<path d="M225.577 9.50515C207.068 4.59617 185.44 2 166.039 2C144.162 2 122.464 6.69072 100.715 6.69072C95.1807 6.69072 89.7984 9.18476 84.6669 10.8603C74.6796 14.1212 64.6289 18.1643 55.5542 23.0561C49.319 26.4173 43.623 29.9424 38.4923 34.5223C34.3341 38.234 28.2407 42.0084 25.8449 46.8225C20.9708 56.6164 23.1467 63.642 32.7652 70.2761C48.0905 80.8463 66.9026 82.5535 85.5021 84.9737C102.415 87.1743 120.566 86.433 137.642 86.433C154.565 86.433 170.407 85.9862 186.919 83.4101C194.209 82.2729 201.494 81.943 208.873 81.6902C218.134 81.3729 227.133 79.0896 236.315 78.1982C249.997 76.8701 263.705 74.0894 276.524 69.9633C284.233 67.4822 294.713 60.1054 299.671 54.5361C304.943 48.6147 304.967 39.8693 302.058 33.1672C298.707 25.45 285.827 19.3995 277.121 17.74C266.993 15.8094 258.67 10.5285 248.127 9.50515C218.875 6.66559 189.724 1.49434 160.074 4.08477C145.395 5.36717 130.287 7.29917 115.569 7.62887C103.653 7.89581 91.8801 10.4433 80.0733 10.4433C69.9025 10.4433 58.2175 12.5718 48.3954 14.7171C38.9586 16.7782 26.1648 21.6458 18.5668 26.8087C6.50213 35.0066 0.603331 48.855 2.28037 62.0412C3.04407 68.046 11.2389 73.5776 16.8367 76.1134C29.1321 81.6832 42.5266 84.4876 55.9122 87.3711C76.6932 91.8478 98.0747 93 119.447 93C135.833 93 152.219 93 168.605 93C179.972 93 190.026 89.5947 201.356 89.2474C213.081 88.888 223.831 84.1874 235.003 81.9507C243.571 80.2353 250.231 77.4544 257.732 73.768C267.567 68.9352 277.822 61.1426 281.416 51.7217" stroke="#DBFF3F" stroke-width="3" stroke-linecap="round"/>
</svg>
