<svg width="713" height="159" viewBox="0 0 713 159" fill="none" xmlns="http://www.w3.org/2000/svg">
<path d="M526.888 14.7835C483.433 6.42205 432.66 2 387.112 2C335.75 2 284.812 9.98969 233.751 9.98969C220.759 9.98969 208.123 14.2378 196.076 17.0916C172.629 22.6461 149.033 29.5327 127.728 37.8648C113.09 43.5898 99.7177 49.5942 87.6722 57.3952C77.9103 63.7173 63.6049 70.1462 57.9804 78.3459C46.5375 95.028 51.6457 106.995 74.2269 118.294C110.206 136.299 154.371 139.207 198.036 143.329C237.743 147.077 280.355 145.814 320.445 145.814C360.175 145.814 397.365 145.053 436.132 140.666C453.245 138.729 470.349 138.167 487.672 137.736C509.413 137.196 530.54 133.306 552.098 131.788C584.218 129.526 616.4 124.79 646.496 117.762C664.593 113.536 689.197 100.971 700.838 91.4845C713.214 81.3987 713.271 66.5027 706.44 55.0871C698.574 41.9422 668.335 31.6364 647.896 28.8099C624.118 25.5215 604.579 16.5266 579.829 14.7835C511.154 9.94688 442.717 1.13872 373.106 5.55097C338.645 7.73528 303.178 11.0261 268.625 11.5876C240.649 12.0423 213.01 16.3814 185.291 16.3814C161.413 16.3814 133.981 20.0069 110.922 23.6609C88.7671 27.1716 58.7312 35.4627 40.8935 44.2566C12.5696 58.2201 -1.27893 81.808 2.65823 104.268C4.45113 114.496 23.69 123.918 36.8319 128.237C65.6974 137.724 97.1435 142.501 128.569 147.412C177.356 155.037 227.553 157 277.728 157C316.197 157 354.666 157 393.134 157C419.821 157 443.426 151.2 470.025 150.608C497.55 149.996 522.789 141.99 549.017 138.18C569.133 135.258 584.768 130.521 602.378 124.242C625.466 116.01 649.542 102.737 657.98 86.6907" stroke="#DBFF3F" stroke-width="3" stroke-linecap="round"/>
</svg>
