<svg width="808" height="106" viewBox="0 0 808 106" fill="none" xmlns="http://www.w3.org/2000/svg">
<path d="M597.218 10.4124C547.941 4.91 490.364 2 438.714 2C380.47 2 322.706 7.25773 264.803 7.25773C250.07 7.25773 235.741 10.0532 222.08 11.9313C195.491 15.5864 168.734 20.1183 144.575 25.6014C127.975 29.3688 112.811 33.3201 99.1516 38.4536C88.0816 42.614 71.8594 46.8446 65.4812 52.2405C52.5051 63.2184 58.2978 71.0932 83.9046 78.5292C124.705 90.3771 174.787 92.2908 224.304 95.0034C269.33 97.4701 317.652 96.6392 363.114 96.6392C408.167 96.6392 450.341 96.1383 494.302 93.2509C513.708 91.9762 533.104 91.6064 552.748 91.323C577.403 90.9674 601.359 88.4081 625.806 87.4089C662.23 85.9203 698.725 82.8035 732.853 78.1787C753.375 75.3977 781.276 67.1292 794.476 60.8866C808.51 54.2495 808.575 44.4469 800.829 36.9347C791.909 28.2846 757.619 21.5027 734.441 19.6426C707.477 17.4787 685.32 11.5594 657.253 10.4124C579.376 7.22956 501.769 1.43322 422.832 4.33677C383.753 5.77419 343.533 7.93972 304.35 8.30928C272.625 8.60849 241.283 11.4639 209.851 11.4639C182.773 11.4639 151.665 13.8497 125.516 16.2543C100.393 18.5645 66.3328 24.0206 46.1049 29.8076C13.9858 38.9965 -1.71828 54.5188 2.74642 69.299C4.77956 76.0296 26.5963 82.2298 41.4991 85.0722C74.2324 91.3152 109.892 94.4587 145.528 97.6907C200.852 102.708 257.775 104 314.674 104C358.297 104 401.92 104 445.543 104C475.806 104 502.573 100.183 532.737 99.7938C563.95 99.391 592.571 94.1222 622.312 91.6151C645.124 89.6923 662.853 86.5752 682.824 82.4433C709.005 77.0263 736.307 68.2917 745.876 57.732" stroke="#DBFF3F" stroke-width="3" stroke-linecap="round"/>
</svg>
