<svg width="267" height="56" viewBox="0 0 267 56" fill="none" xmlns="http://www.w3.org/2000/svg">
<path d="M196.705 6.28866C180.585 3.48353 161.751 2 144.855 2C125.803 2 106.908 4.68041 87.9667 4.68041C83.1474 4.68041 78.4602 6.10558 73.9914 7.063C65.2938 8.92642 56.5411 11.2368 48.6383 14.0321C43.2083 15.9527 38.2479 17.9671 33.7797 20.5842C30.1585 22.7052 24.852 24.8619 22.7656 27.6128C18.521 33.2094 20.4158 37.224 28.7922 41.0149C42.1385 47.055 58.5211 48.0306 74.7187 49.4135C89.4476 50.671 105.254 50.2474 120.126 50.2474C134.863 50.2474 148.659 49.9921 163.039 48.52C169.387 47.8702 175.732 47.6817 182.158 47.5372C190.222 47.3559 198.059 46.0512 206.056 45.5418C217.971 44.7829 229.909 43.194 241.072 40.8362C247.785 39.4184 256.912 35.2031 261.23 32.0206C265.821 28.637 265.842 23.6396 263.308 19.8099C260.39 15.4 249.174 11.9425 241.592 10.9943C232.772 9.89108 225.524 6.87344 216.343 6.28866C190.868 4.66605 165.482 1.71105 139.66 3.19129C126.877 3.9241 113.72 5.02809 100.903 5.21649C90.5255 5.36903 80.2731 6.82474 69.991 6.82474C61.1336 6.82474 50.9576 8.04103 42.4039 9.2669C34.1858 10.4447 23.0442 13.2262 16.4274 16.1764C5.92073 20.8609 0.783696 28.7743 2.24417 36.3093C2.90924 39.7406 10.0458 42.9015 14.9207 44.3505C25.6282 47.5333 37.293 49.1358 48.95 50.7835C67.0474 53.3416 85.6677 54 104.28 54C118.55 54 132.82 54 147.089 54C156.989 54 165.745 52.0541 175.612 51.8557C185.822 51.6503 195.184 48.9642 204.913 47.6861C212.375 46.7059 218.175 45.1168 224.707 43.0103C233.272 40.2487 242.202 35.7958 245.333 30.4124" stroke="#DBFF3F" stroke-width="3" stroke-linecap="round"/>
</svg>
