<svg width="582" height="20" viewBox="0 0 582 20" fill="none" xmlns="http://www.w3.org/2000/svg">
<path d="M9.07697 3.78978C162.74 3.78978 316.398 2 470.06 2C492.149 2 513.492 3.50575 535.404 5.35583C548.694 6.4779 561.948 8.93966 575.23 9.71841C592.631 10.7387 550.02 9.98719 548.044 10.054C468.954 12.7277 389.985 11.8438 310.755 11.8438C278.323 11.8438 246.1 10.8634 213.693 9.94214C191.635 9.31505 167.231 7.66377 145.25 10.2777C109.217 14.5626 72.7015 17.8843 36.2638 17.8843C26.821 17.8843 17.3218 18.1447 7.88457 17.8843C5.68444 17.8236 -1.38573 15.5257 3.94964 13.8573C15.3699 10.2861 29.4849 11.2793 41.2719 10.837C65.1611 9.94059 89.0299 9.83027 112.935 9.83027C199.333 9.83027 285.516 7.81678 371.926 7.81678C421.055 7.81678 470.488 11.8438 519.903 11.8438C540.246 11.8438 559.842 9.83027 580 9.83027" stroke="#DBFF3F" stroke-width="3" stroke-linecap="round"/>
</svg>
