<svg width="250" height="20" viewBox="0 0 250 20" fill="none" xmlns="http://www.w3.org/2000/svg">
<path d="M5.012 3.78978C70.4119 3.78978 135.81 2 201.209 2C210.61 2 219.694 3.50575 229.02 5.35583C234.676 6.4779 240.317 8.93966 245.97 9.71841C253.376 10.7387 235.24 9.98719 234.399 10.054C200.738 12.7277 167.129 11.8438 133.408 11.8438C119.605 11.8438 105.89 10.8634 92.0979 9.94214C82.7095 9.31505 72.3233 7.66377 62.9678 10.2777C47.6321 14.5626 32.0909 17.8843 16.5829 17.8843C12.564 17.8843 8.52104 18.1447 4.50451 17.8843C3.56812 17.8236 0.559017 15.5257 2.82978 13.8573C7.69031 10.2861 13.6977 11.2793 18.7143 10.837C28.8817 9.94059 39.0404 9.83027 49.2147 9.83027C85.986 9.83027 122.666 7.81678 159.442 7.81678C180.352 7.81678 201.391 11.8438 222.422 11.8438C231.081 11.8438 239.421 9.83027 248 9.83027" stroke="#DBFF3F" stroke-width="3" stroke-linecap="round"/>
</svg>
