<svg width="348" height="20" viewBox="0 0 348 20" fill="none" xmlns="http://www.w3.org/2000/svg">
<path d="M6.2119 3.78978C97.6654 3.78978 189.116 2 280.569 2C293.715 2 306.417 3.50575 319.458 5.35583C327.368 6.4779 335.256 8.93966 343.161 9.71841C353.518 10.7387 328.157 9.98719 326.981 10.054C279.911 12.7277 232.911 11.8438 185.757 11.8438C166.455 11.8438 147.278 10.8634 127.991 9.94214C114.862 9.31505 100.338 7.66377 87.2558 10.2777C65.8108 14.5626 44.0784 17.8843 22.3923 17.8843C16.7724 17.8843 11.1189 18.1447 5.50223 17.8843C4.19282 17.8236 -0.0150337 15.5257 3.16034 13.8573C9.95718 10.2861 18.3578 11.2793 25.3729 10.837C39.5907 9.94059 53.7964 9.83027 68.0238 9.83027C119.444 9.83027 170.736 7.81678 222.163 7.81678C251.403 7.81678 280.824 11.8438 310.233 11.8438C322.34 11.8438 334.003 9.83027 346 9.83027" stroke="#DBFF3F" stroke-width="3" stroke-linecap="round"/>
</svg>
